<?xml version="1.0" standalone="no"?>
<!DOCTYPE svg PUBLIC "-//W3C//DTD SVG 20010904//EN"
 "http://www.w3.org/TR/2001/REC-SVG-20010904/DTD/svg10.dtd">
<svg version="1.0" xmlns="http://www.w3.org/2000/svg"
 width="2048.000000pt" height="2048.000000pt" viewBox="0 0 2048.000000 2048.000000"
 preserveAspectRatio="xMidYMid meet">

<g transform="translate(0.000000,2048.000000) scale(0.100000,-0.100000)"
fill="#000000" stroke="none">
<path d="M6240 17334 c-574 -52 -1028 -177 -1494 -413 -762 -386 -1368 -996
-1751 -1761 -229 -457 -372 -920 -421 -1365 -23 -215 -24 -817 0 -1045 57
-554 153 -952 335 -1379 44 -102 103 -242 131 -311 156 -374 420 -860 673
-1240 621 -930 1822 -2225 3632 -3915 88 -82 223 -208 300 -280 77 -71 169
-157 205 -191 36 -33 236 -218 445 -409 209 -192 405 -372 435 -400 30 -29 89
-83 130 -122 620 -576 712 -664 974 -927 164 -165 309 -320 378 -404 l28 -33
32 38 c238 276 638 671 1303 1288 77 72 167 155 200 186 100 92 319 294 515
474 102 93 212 195 245 226 33 31 220 204 415 385 1870 1734 3075 3014 3747
3984 282 407 559 905 736 1325 30 72 92 217 136 323 186 439 283 838 337 1387
24 234 23 827 0 1038 -31 277 -79 491 -176 777 -218 649 -537 1170 -999 1630
-312 311 -650 551 -1046 745 -521 255 -1034 378 -1625 392 -680 16 -1268 -116
-1865 -417 -402 -203 -682 -406 -1011 -735 -374 -373 -607 -716 -841 -1235
-11 -25 -37 -91 -58 -147 -21 -57 -41 -103 -45 -103 -4 0 -24 46 -45 103 -50
135 -94 232 -181 402 -543 1062 -1549 1824 -2719 2060 -258 52 -409 66 -720
70 -159 1 -310 1 -335 -1z"/>
</g>
</svg>
